<svg width="400" height="314" viewBox="0 0 400 314" fill="none" xmlns="http://www.w3.org/2000/svg">
<path d="M210.512 0L0 31.9645V176.559L210.512 144.594V0Z" fill="#E15822"/>
<path d="M400 115.706L46.3285 169.421V314L400 260.285V115.706Z" fill="#FFE7B6"/>
<path d="M56.7715 102.677L37.9343 105.6V155.193L23.5924 157.423V48.1929L59.1568 42.6707V55.8995L37.9343 59.1913V92.3557L56.7715 89.433V102.677Z" fill="white"/>
<path d="M68.8659 150.409V41.1786L83.2078 38.9481V148.178L68.8659 150.409Z" fill="white"/>
<path d="M96.663 36.8715L124.766 32.5183C135.729 30.8262 141.203 36.2101 141.203 48.6852V75.6043C141.203 85.1413 138.359 91.6173 132.686 95.0322L142.701 138.964L129.093 141.072L119.674 98.4163L111.005 99.7546V143.871L96.663 146.102V36.8715ZM111.005 87.2795L120.424 85.8182C124.705 85.1567 126.845 82.1879 126.845 76.9118V53.3306C126.845 48.0545 124.705 45.7471 120.424 46.4239L111.005 47.8853V87.2949V87.2795Z" fill="white"/>
<path d="M153.159 137.334V28.1036L188.724 22.5813V35.8101L167.501 39.1019V72.2663L186.338 69.3437V82.5725L167.501 85.4951V121.859L188.724 118.567V131.796L153.159 137.318V137.334Z" fill="white"/>
<path d="M104.002 287.896L69.9209 293.172V183.942L84.2628 181.712V277.713L103.987 274.652V287.896H104.002Z" fill="#212C2D"/>
<path d="M128.802 284.051C117.243 285.85 111.464 280.559 111.464 268.176V196.217C111.464 183.742 117.197 176.62 128.65 174.836L142.395 172.698C153.847 170.913 159.581 176.266 159.581 188.742V260.7C159.581 273.068 153.801 280.159 142.242 281.943L128.787 284.035L128.802 284.051ZM132.243 270.283L139.567 269.145C143.358 268.561 145.239 266.13 145.239 261.869V191.895C145.239 187.634 143.099 185.834 138.817 186.511L132.09 187.557C127.9 188.203 125.806 190.664 125.806 194.925V264.9C125.806 269.16 127.946 270.96 132.227 270.299L132.243 270.283Z" fill="#212C2D"/>
<path d="M202.041 216.261V163.468L216.383 161.238V270.468L202.041 272.698V250.948L186.644 203.585V275.083L172.302 277.313V168.083L186.644 165.853L202.041 216.261Z" fill="#212C2D"/>
<path d="M251.948 224.936V211.707L273.766 208.323V261.562L245.663 265.915C234.609 267.638 229.074 262.346 229.074 250.086V177.974C229.074 165.499 234.609 158.407 245.663 156.685L255.525 155.162C267.681 153.27 273.751 158.669 273.751 171.344V183.204L259.409 185.434V175.697C259.409 170.421 257.36 168.098 253.278 168.729L249.7 169.283C245.51 169.929 243.416 172.898 243.416 178.174V245.118C243.416 250.394 245.51 252.701 249.7 252.055L259.409 250.548V223.767L251.932 224.921L251.948 224.936Z" fill="#212C2D"/>
<path d="M285.432 259.762V150.532L320.997 145.009V158.238L299.774 161.53V194.694L318.612 191.772V205.001L299.774 207.923V244.287L320.997 240.995V254.224L285.432 259.731V259.762Z" fill="#212C2D"/>
<path d="M331.302 143.41L359.405 139.056C370.368 137.364 375.842 142.748 375.842 155.223V182.158C375.842 191.695 372.998 198.171 367.325 201.586L377.34 245.518L363.748 247.625L354.329 204.97L345.66 206.308V250.425L331.318 252.655V143.425L331.302 143.41ZM345.644 193.818L355.063 192.356C359.344 191.695 361.485 188.726 361.485 183.45V159.869C361.485 154.593 359.344 152.285 355.063 152.947L345.644 154.408V193.818Z" fill="#212C2D"/>
<path d="M288.46 72.697L196.063 86.7257V154.685L288.46 140.656V72.697Z" fill="white"/>
<path d="M224.762 119.567L216.827 120.798V141.687L210.787 142.625V96.6012L225.771 94.2785V99.8469L216.827 101.231V115.198L224.762 113.968V119.567Z" fill="#212C2D"/>
<path d="M236.841 138.58C231.979 139.333 229.533 137.103 229.533 131.888V101.57C229.533 96.3089 231.948 93.3094 236.78 92.571L242.575 91.6788C247.406 90.9251 249.822 93.1863 249.822 98.4471V128.766C249.822 133.98 247.391 136.964 242.514 137.718L236.841 138.595V138.58ZM238.294 132.78L241.382 132.304C242.972 132.058 243.783 131.042 243.783 129.243V99.7546C243.783 97.9548 242.881 97.2011 241.076 97.478L238.248 97.9241C236.489 98.201 235.603 99.2316 235.603 101.031V130.519C235.603 132.319 236.505 133.073 238.309 132.796L238.294 132.78Z" fill="#212C2D"/>
<path d="M255.158 89.7253L266.993 87.8948C271.61 87.1718 273.919 89.4484 273.919 94.7092V106.061C273.919 110.076 272.727 112.814 270.326 114.245L274.546 132.75L268.812 133.642L264.852 115.675L261.198 116.244V134.826L255.158 135.765V89.7253ZM261.198 110.968L265.158 110.353C266.962 110.076 267.864 108.815 267.864 106.6V96.6627C267.864 94.4477 266.962 93.4632 265.158 93.7554L261.198 94.3708V110.968Z" fill="#212C2D"/>
</svg>
