<svg width="68" height="85" viewBox="0 0 68 85" fill="none" xmlns="http://www.w3.org/2000/svg">
<path d="M63.9837 56.3237C64.8298 63.4098 57.9628 69.4727 52.602 67.1409C47.2411 64.809 55.4702 52.7319 55.4702 52.7319C63.9345 34.2682 47.852 26.5765 47.852 26.5765C50.2498 32.5907 50.815 39.8648 46.1598 41.2639C41.5046 42.663 43.4776 34.8286 43.4776 34.8286C45.5911 9.93313 31.0602 0 31.0602 0C34.7289 12.7766 25.1341 30.9584 19.5872 31.5187C14.0368 32.0791 18.5516 16.5042 17.5159 17.3464C16.4802 18.1852 9.33243 20.705 8.39507 29.1903C7.34186 38.7023 25.889 58.2832 14.3212 58.2832C2.75336 58.2832 8.77072 45.7885 8.77072 45.7885C8.77072 45.7885 -0.729268 50.3582 0.116813 62.0142C1.41578 79.8862 27.1493 85.5836 26.4542 84.9537C18.9272 78.146 24.9481 68.634 24.9481 68.634C25.4185 75.1145 29.6524 75.4869 29.6524 75.4869C25.0429 57.3957 36.1402 37.3484 36.1402 37.3484C38.8224 45.0402 37.1267 63.9249 37.1267 63.9249C39.4333 58.4224 45.2646 58.7008 45.2646 58.7008C36.5159 74.227 46.7707 83.645 46.7707 83.645C80.2558 75.6261 63.9837 56.3202 63.9837 56.3202V56.3237Z" fill="#DDB26C"/>
<path d="M56.6884 25.4906C58.2015 27.0603 62.5373 32.9004 62.5829 36.3356C65.381 25.6786 60.6239 21.9998 56.1583 20.0264C51.6927 18.0564 47.4728 16.9775 46.4652 11.9135C46.4652 11.9135 44.8538 15.8046 46.6829 18.1748C49.4458 21.7561 54.5293 23.1796 56.6884 25.4906Z" fill="#DDB26C"/>
</svg>
