<svg width="104" height="104" viewBox="0 0 104 104" fill="none" xmlns="http://www.w3.org/2000/svg">
<g clip-path="url(#clip0_31_69)">
<path d="M29.0472 0C31.0904 0.436644 33.1743 0.729549 35.1659 1.33163C43.0918 3.72911 49.6882 8.28811 55.4705 14.1082C59.5297 18.1926 62.8781 22.795 65.3989 27.9073C67.5859 27.5628 69.7024 27.1099 71.8433 26.9174C76.6569 26.4807 81.4406 27.0096 85.2177 30.1691C91.6458 35.5445 97.5638 41.4432 100.882 49.414C110.412 72.2904 97.154 97.5507 73.6992 102.885C59.6301 106.086 47.2678 102.356 36.8673 92.311C35.2121 90.7135 33.6139 89.0565 31.9804 87.4346C28.5262 84.0093 26.9741 79.773 26.8493 75.0079C26.7896 72.7921 27.0609 70.5655 27.1912 68.1952C26.2822 67.9212 25.1914 67.6121 24.1115 67.2649C10.9432 63.0259 1.37842 51.0142 0.176372 37.2314C0.149238 36.9331 0.0596953 36.6429 0 36.3473C0 34.7227 0 33.0982 0 31.4736C0.0569818 31.2513 0.149238 31.0316 0.168232 30.8038C0.724483 24.5823 2.78397 18.9032 6.38739 13.8072C9.19307 9.8367 12.6907 6.48186 16.3619 3.35213C17.7268 2.18865 19.5665 1.53232 21.2651 0.832608C22.364 0.379691 23.6041 0.265784 24.7817 0C26.2035 0 27.6253 0 29.0472 0ZM30.8652 73.0878C30.8597 76.4724 31.2478 78.935 32.4145 81.2077C34.8539 85.9593 39.0271 87.8631 44.1148 88.1099C48.4183 88.3188 52.5373 87.3397 56.4527 85.6582C68.8395 80.3344 78 71.4985 84.2327 59.6196C86.7427 54.8382 88.2703 49.7368 88.1401 44.253C87.9664 36.8571 83.5815 31.9293 76.3095 31.0234C71.6153 30.4403 67.1273 31.4465 62.8456 33.2446C50.3014 38.5115 41.0785 47.4207 34.7752 59.3836C32.3874 63.9155 30.9411 68.7566 30.8625 73.0878H30.8652ZM43.0511 92.4032C49.6882 97.5534 57.2505 100.084 65.6946 99.8858C72.5379 99.7258 78.8086 97.7134 84.4145 93.9002C82.1 92.8696 79.8397 91.9123 77.6228 90.86C75.9704 90.0762 75.4711 88.948 76.1033 87.7709C76.741 86.5858 77.8698 86.442 79.5304 87.3045C81.9372 88.552 84.3847 89.6884 87.109 90.0762C88.3192 90.2471 89.3068 89.984 90.2104 89.0375C100.481 78.2841 102.901 62.074 96.1067 48.8608C95.0539 46.8132 93.7216 44.9066 92.4598 42.8345C92.2536 43.122 92.1912 43.1708 92.1885 43.2224C91.9958 45.7446 91.7896 48.2668 91.6377 50.7918C91.616 51.1552 91.7923 51.5647 91.9768 51.8983C93.0568 53.8483 94.2018 55.763 95.2492 57.7293C95.876 58.9063 95.4989 60.0833 94.465 60.6122C93.3824 61.1655 92.259 60.7315 91.6132 59.503C91.1194 58.5619 90.6337 57.6154 90.1914 56.7692C88.2947 60.4142 86.4143 64.024 84.4797 67.7395C84.6289 67.9429 84.8975 68.2901 85.1444 68.6535C86.4252 70.5221 87.7222 72.3799 88.9649 74.2729C89.7708 75.4988 89.5456 76.7246 88.4874 77.3728C87.4753 77.9939 86.3194 77.6386 85.5569 76.4643C85.2801 76.0385 85.0251 75.5991 84.7401 75.1815C83.7959 73.7929 82.8408 72.4124 81.8503 70.9696C74.9637 79.472 66.8234 86.0569 56.5043 90.0464C57.5517 90.5942 58.4362 91.0607 59.3262 91.5217C60.7047 92.235 61.1877 93.3442 60.6043 94.4698C60.0426 95.5546 58.8677 95.8611 57.5354 95.1478C55.6306 94.1253 53.7773 93.0107 51.886 91.9611C51.5523 91.7767 51.1371 91.5922 50.779 91.6248C48.2284 91.8526 45.6804 92.1374 43.0484 92.4113L43.0511 92.4032ZM54.282 32.9192C52.2931 29.0274 49.7913 25.6807 46.8201 22.6892C42.598 18.4421 37.8468 14.9896 32.0808 13.1237C29.8856 12.4132 27.6362 11.9006 25.3054 12.3345C23.6203 12.6491 22.7955 13.4248 22.7846 15.1334C22.7737 16.9369 22.8443 18.8083 23.3001 20.5386C24.9608 26.8306 28.6727 31.9049 33.2177 36.4205C35.7439 38.9291 38.536 41.1015 41.6836 42.8969C45.4715 39.0539 49.6095 35.7072 54.2793 32.9165L54.282 32.9192ZM19.8894 39.8268C18.823 41.427 17.8299 42.9023 16.8503 44.3913C16.0282 45.6415 14.9184 46.0104 13.8629 45.3568C12.8182 44.7113 12.6011 43.4854 13.407 42.2542C14.5548 40.5022 15.7406 38.7718 16.9643 37.0687C17.3225 36.5723 17.2872 36.2605 17.005 35.7397C15.6022 33.1633 14.2672 30.5488 12.905 27.948C12.8019 27.7527 12.688 27.5628 12.517 27.2618C12.148 27.9751 11.8359 28.5717 11.5348 29.1711C10.8211 30.5787 9.74661 31.056 8.59612 30.4729C7.4809 29.9088 7.18785 28.7778 7.87978 27.4245C8.5717 26.0712 9.25005 24.6989 10.0939 23.4405C10.775 22.4262 11.0816 21.4905 10.8021 20.2484C10.5362 19.074 10.5606 17.8319 10.4738 16.6169C10.4467 16.2155 10.4684 15.8114 10.4684 15.4073C10.0831 15.6188 9.89856 15.8548 9.7249 16.0962C1.31601 27.8449 2.43394 44.4672 12.2809 55.0389C13.331 56.1644 14.4652 56.5685 15.7975 56.1074C18.0225 55.3399 20.196 54.4178 22.3722 53.5174C23.5389 53.0347 24.6324 53.2869 25.1833 54.2768C25.7612 55.3101 25.4166 56.5061 24.2498 57.1055C22.8389 57.8296 21.3845 58.4669 19.9355 59.1151C19.3521 59.3755 18.7389 59.5681 17.9954 59.842C21.2949 61.9845 24.6704 63.4273 28.1056 64.1542C30.0213 60.162 31.8718 56.3081 33.7685 52.3539C28.5886 49.0886 23.9812 44.8632 19.8894 39.816V39.8268ZM38.8481 45.9887C38.5279 45.7771 38.2511 45.5927 37.9743 45.411C30.7566 40.6622 25.0259 34.5708 21.2515 26.7492C19.4525 23.0201 18.3183 19.1147 18.6765 14.9029C18.9885 11.2307 21.1864 8.8712 24.8332 8.29353C28.0025 7.7918 31.0578 8.39388 33.991 9.49498C44.2152 13.3299 51.6852 20.3623 57.1474 29.6783C57.3943 30.1013 57.6412 30.5244 57.8881 30.9502C59.1689 30.3834 60.3356 29.8654 61.5404 29.3311C61.4102 29.0653 61.3125 28.8538 61.2012 28.6477C56.2492 19.4917 49.1889 12.4403 39.9633 7.62094C35.6598 5.37262 31.0904 3.95421 26.1574 4.07625C19.884 4.23084 15.613 7.89757 14.6905 13.9943C14.259 16.842 14.6036 19.6626 15.3471 22.4343C17.2791 29.6457 21.2542 35.6584 26.3229 41.012C29.286 44.1418 32.5855 46.8647 36.311 49.151C37.163 48.0905 37.9825 47.0654 38.8453 45.9914L38.8481 45.9887Z" fill="#DDB26C"/>
<path d="M34.9407 73.9068C35.0656 68.8135 36.7397 64.1732 39.1601 59.7687C39.9389 58.3476 40.8261 56.9834 41.7161 55.6274C42.5329 54.3799 43.6997 54.0897 44.7335 54.8002C45.7402 55.4918 45.8812 56.7095 45.0482 57.93C42.5709 61.5587 40.5195 65.399 39.5807 69.7221C39.2252 71.3602 39.0299 73.0661 39.0407 74.7394C39.0678 78.1105 40.8153 79.8191 44.1935 79.9846C46.9395 80.1202 49.6122 79.632 52.133 78.596C64.9647 73.3183 73.9923 64.2572 78.9063 51.2447C79.8994 48.614 80.3715 45.8233 79.8424 42.9701C79.4327 40.7734 78.2334 39.5611 76.0436 39.1841C72.8716 38.6362 69.857 39.3685 66.8913 40.3882C63.7356 41.4731 60.8512 43.0841 58.0808 44.9256C57.5707 45.2646 56.9194 45.552 56.3252 45.5683C55.3945 45.5927 54.7487 44.9825 54.5099 44.0712C54.2711 43.1491 54.6266 42.4033 55.3918 41.869C59.0766 39.3007 63.0084 37.2151 67.3417 35.973C70.085 35.1865 72.8852 34.6712 75.756 35.0509C81.1449 35.7642 83.9668 38.9346 84.0808 44.394C84.1703 48.6438 83.0958 52.6577 81.248 56.4275C75.2567 68.6481 66.1071 77.5491 53.3133 82.4851C50.0708 83.7354 46.6654 84.4052 43.1651 83.9361C37.8278 83.2201 35.0493 80.0198 34.938 74.6201C34.9326 74.3841 34.938 74.1455 34.938 73.9095L34.9407 73.9068Z" fill="#DDB26C"/>
<path d="M49.4765 47.4722C50.5944 47.4722 51.4844 48.3427 51.4953 49.4493C51.5089 50.5856 50.5537 51.5267 49.425 51.4942C48.3206 51.4616 47.4604 50.5612 47.4713 49.4466C47.4821 48.3238 48.3477 47.4722 49.4765 47.4722Z" fill="#DDB26C"/>
</g>
<defs>
<clipPath id="clip0_31_69">
<rect width="104" height="104" fill="white"/>
</clipPath>
</defs>
</svg>
