<svg width="61" height="61" viewBox="0 0 61 61" fill="none" xmlns="http://www.w3.org/2000/svg">
<rect x="0.00012207" width="61" height="61" rx="5" fill="#F9F9F9"/>
<path d="M25.7666 17.0698H34.8777C38.3486 17.0698 41.1687 19.8899 41.1687 23.3608V32.4719C41.1687 34.1404 40.5059 35.7405 39.3261 36.9203C38.1463 38.1001 36.5462 38.7629 34.8777 38.7629H25.7666C22.2957 38.7629 19.4756 35.9428 19.4756 32.4719V23.3608C19.4756 21.6923 20.1384 20.0922 21.3182 18.9124C22.498 17.7326 24.0981 17.0698 25.7666 17.0698ZM25.5496 19.2391C24.514 19.2391 23.5209 19.6505 22.7886 20.3828C22.0563 21.1151 21.6449 22.1083 21.6449 23.1439V32.6888C21.6449 34.8473 23.3912 36.5936 25.5496 36.5936H35.0946C36.1302 36.5936 37.1234 36.1822 37.8557 35.4499C38.588 34.7176 38.9994 33.7244 38.9994 32.6888V23.1439C38.9994 20.9854 37.2531 19.2391 35.0946 19.2391H25.5496ZM36.0166 20.8661C36.3761 20.8661 36.721 21.009 36.9753 21.2632C37.2295 21.5175 37.3724 21.8623 37.3724 22.2219C37.3724 22.5815 37.2295 22.9264 36.9753 23.1806C36.721 23.4349 36.3761 23.5777 36.0166 23.5777C35.657 23.5777 35.3121 23.4349 35.0579 23.1806C34.8036 22.9264 34.6607 22.5815 34.6607 22.2219C34.6607 21.8623 34.8036 21.5175 35.0579 21.2632C35.3121 21.009 35.657 20.8661 36.0166 20.8661ZM30.3221 22.4931C31.7605 22.4931 33.1399 23.0645 34.157 24.0815C35.174 25.0986 35.7454 26.478 35.7454 27.9164C35.7454 29.3547 35.174 30.7341 34.157 31.7512C33.1399 32.7683 31.7605 33.3396 30.3221 33.3396C28.8838 33.3396 27.5044 32.7683 26.4873 31.7512C25.4702 30.7341 24.8989 29.3547 24.8989 27.9164C24.8989 26.478 25.4702 25.0986 26.4873 24.0815C27.5044 23.0645 28.8838 22.4931 30.3221 22.4931ZM30.3221 24.6624C29.4591 24.6624 28.6315 25.0052 28.0212 25.6155C27.411 26.2257 27.0682 27.0534 27.0682 27.9164C27.0682 28.7794 27.411 29.607 28.0212 30.2173C28.6315 30.8275 29.4591 31.1703 30.3221 31.1703C31.1851 31.1703 32.0128 30.8275 32.623 30.2173C33.2333 29.607 33.5761 28.7794 33.5761 27.9164C33.5761 27.0534 33.2333 26.2257 32.623 25.6155C32.0128 25.0052 31.1851 24.6624 30.3221 24.6624Z" fill="black"/>
</svg>
