<svg width="294" height="142" viewBox="0 0 294 142" fill="none" xmlns="http://www.w3.org/2000/svg">
<g clip-path="url(#clip0_77_307)">
<path d="M63.1287 115.142V117.261C63.1287 121.01 61.3592 123.154 57.8201 123.695L54.9649 124.134C51.4258 124.674 49.6562 123.07 49.6562 119.321V97.4699C49.6562 93.721 51.4258 91.5764 54.9649 91.036L57.8201 90.597C61.3592 90.0566 63.1287 91.6608 63.1287 95.4097V99.1416L58.7006 99.8171V96.406C58.7006 95.1142 58.0423 94.5738 56.7173 94.768L55.8454 94.9031C54.6742 95.0804 54.0929 95.815 54.0929 97.1068V118.308C54.0929 119.6 54.6742 120.157 55.8454 119.98L56.9481 119.811C58.1193 119.634 58.7006 118.899 58.7006 117.607V115.809L63.1287 115.133V115.142Z" fill="#212C2D"/>
<path d="M76.4556 120.849V105.82L71.0102 106.648V121.677L66.582 122.352V89.2545L71.0102 88.579V102.637L76.4556 101.81V87.7516L80.8837 87.0761V120.174L76.4556 120.849Z" fill="#212C2D"/>
<path d="M89.2357 118.907L84.8076 119.583V92.159C84.8076 88.3764 86.5772 86.2233 90.1162 85.6829L93.4331 85.1763C96.9721 84.636 98.7417 86.2571 98.7417 90.0397V117.464L94.3135 118.139V106.014L89.2443 106.791V118.916L89.2357 118.907ZM94.305 102.004V90.9854C94.305 89.6935 93.6639 89.1447 92.3645 89.3473L91.1677 89.5331C89.8769 89.7273 89.2272 90.4703 89.2272 91.7621V102.781L94.2965 102.004H94.305Z" fill="#212C2D"/>
<path d="M102.657 83.7663L111.325 82.4491C114.711 81.9341 116.403 83.5637 116.403 87.3463V95.5025C116.403 98.3902 115.523 100.357 113.77 101.388L116.865 114.703L112.668 115.344L109.761 102.418L107.085 102.823V116.189L102.657 116.864V83.7663ZM107.085 99.0403L109.992 98.6012C111.317 98.3986 111.975 97.5036 111.975 95.8994V88.7563C111.975 87.1605 111.317 86.4597 109.992 86.6624L107.085 87.1014V99.0403Z" fill="#212C2D"/>
<path d="M133.329 104.452V106.572C133.329 110.321 131.559 112.465 128.02 113.006L125.156 113.445C121.617 113.985 119.848 112.381 119.848 108.632V86.7806C119.848 83.0318 121.617 80.8872 125.156 80.3468L128.02 79.9077C131.559 79.3673 133.329 80.9716 133.329 84.7204V88.4524L128.901 89.1278V85.7167C128.901 84.4249 128.242 83.8845 126.917 84.0872L126.045 84.2223C124.874 84.3996 124.293 85.1341 124.293 86.426V107.627C124.293 108.919 124.874 109.476 126.045 109.299L127.148 109.13C128.319 108.953 128.901 108.218 128.901 106.926V105.128L133.329 104.452Z" fill="#212C2D"/>
<path d="M141.903 110.886C138.338 111.427 136.552 109.831 136.552 106.074V84.2729C136.552 80.4903 138.321 78.3372 141.86 77.7968L146.1 77.1552C149.64 76.6148 151.409 78.2359 151.409 82.0185V103.819C151.409 107.568 149.622 109.713 146.058 110.253L141.903 110.886ZM142.963 106.715L145.22 106.369C146.391 106.192 146.972 105.457 146.972 104.165V82.9642C146.972 81.6723 146.314 81.132 144.989 81.3262L142.912 81.6386C141.621 81.8328 140.971 82.5758 140.971 83.8676V105.069C140.971 106.361 141.63 106.901 142.955 106.707L142.963 106.715Z" fill="#212C2D"/>
<path d="M159.522 108.21L155.094 108.885V81.4613C155.094 77.6787 156.863 75.5256 160.402 74.9852L163.719 74.4786C167.258 73.9383 169.028 75.5594 169.028 79.342V106.766L164.6 107.441V95.3168L159.53 96.0851V108.21H159.522ZM164.591 91.3062V80.2877C164.591 78.9958 163.95 78.447 162.651 78.6496L161.454 78.8354C160.163 79.0296 159.513 79.7726 159.513 81.0644V92.083L164.583 91.3147L164.591 91.3062Z" fill="#212C2D"/>
<path d="M183.457 104.562L172.942 106.166V73.0686L177.371 72.3931V101.48L183.457 100.552V104.562Z" fill="#212C2D"/>
<path d="M68.0096 26.3348V27.7701C68.0096 28.4878 67.8472 29.7543 67.5309 31.3923C67.2146 33.0388 66.7359 34.9892 66.2144 37.1422C65.6588 39.346 65.0177 41.7523 64.2996 44.336C63.6242 46.9534 62.8634 49.5877 62.1454 52.2052C61.3845 54.8732 60.6237 57.5076 59.9057 60.1334C59.6236 61.0538 59.3842 61.9657 59.1448 62.886C58.384 60.9271 57.589 58.8923 56.7854 56.7814C55.3835 53.2015 54.067 49.7313 52.7506 46.3793C51.4683 43.0188 50.357 39.9623 49.3568 37.1591C48.3566 34.3559 47.6813 32.186 47.3223 30.6071L47.0402 29.5348L36.4913 31.139L36.2519 32.2536C35.816 34.0351 35.0893 36.5005 34.1319 39.6837C33.1745 42.8668 32.0546 46.3455 30.8151 50.1703C29.5756 53.9529 28.3018 57.896 26.9426 61.9741C26.1049 64.3804 25.344 66.6855 24.5832 68.923C24.3011 68.0448 24.0276 67.1752 23.7455 66.2549C22.9847 63.8992 22.2238 61.4928 21.4716 59.0189C20.7535 56.5704 19.9927 54.1387 19.2746 51.7323C18.5565 49.326 17.8727 47.0716 17.2743 45.0114C16.6331 42.9513 16.1544 41.1106 15.7526 39.4979C15.3167 37.8515 15.0773 36.5681 14.9149 35.6731L14.7524 34.4573L0.75 36.5765L2.02373 38.5776C2.93842 39.9961 4.10101 42.4953 5.37474 45.974C6.64847 49.4526 8.28978 54.0711 10.2901 59.8379V59.8801C11.2476 62.5313 12.1708 65.1826 12.9658 67.7747C13.8036 70.3583 14.5216 72.8069 15.2055 75.0613C15.8467 77.3156 16.3596 79.3167 16.7272 81.056C17.0435 82.846 17.2486 84.1716 17.2486 85.0075V86.4429L29.7123 84.5431L29.9517 83.3864C30.1141 82.5674 30.4732 81.2756 31.0288 79.4687C31.5503 77.6703 32.1829 75.5763 32.9437 73.2291C33.7045 70.8818 34.5422 68.315 35.4569 65.5794C36.3716 62.8438 37.2949 60.1081 38.2095 57.3725C39.1242 54.5946 40.0047 51.9519 40.8852 49.3429C41.2015 48.4141 41.4836 47.536 41.7657 46.6917C42.082 47.5191 42.4496 48.3465 42.7659 49.25C43.6464 51.5128 44.5269 53.8094 45.4416 56.1904C46.3221 58.5714 47.2368 60.944 48.0745 63.3757C48.955 65.7567 49.75 68.028 50.4681 70.1557C51.2289 72.275 51.8701 74.1747 52.4257 75.8465C52.9814 77.5183 53.3831 78.8523 53.6652 79.8064L53.9815 80.8365L55.0587 80.6761L66.1632 78.9874L66.2401 77.5774C66.2828 76.733 66.4795 75.3483 66.8385 73.457C67.2403 71.5573 67.7617 69.4042 68.3943 66.9557C69.0696 64.4564 69.7963 61.8306 70.5913 58.9598C71.3863 56.1229 72.2326 53.2437 73.1045 50.2716C74.062 46.8943 74.9425 43.9222 75.7033 41.2964C76.4214 38.7127 77.1394 36.4499 77.7806 34.5164C78.4217 32.5828 79.0201 30.9364 79.5416 29.6192C80.063 28.3443 80.5417 27.348 80.9777 26.6472L82.619 24.1226L68.0011 26.3517L68.0096 26.3348Z" fill="#212C2D"/>
<path d="M93.6128 40.5111C93.6897 38.6198 93.7752 36.9734 93.8949 35.4789C93.9718 34.0267 94.1342 32.8446 94.2539 32.0678L94.5702 30.5818L93.0486 30.8098L82.6279 32.3971L82.91 33.7903C83.0725 34.5248 83.1921 35.6647 83.3118 37.0832C83.3887 38.5438 83.5084 40.165 83.5939 42.0309C83.6709 43.8547 83.7136 45.8473 83.7563 47.9582C83.7991 50.1112 83.8333 52.2558 83.8333 54.4511C83.8333 56.6464 83.7905 58.6474 83.7563 60.7667C83.7136 62.8522 83.6794 64.8533 83.5939 66.7024C83.517 68.5515 83.3973 70.2486 83.3118 71.7768C83.1921 73.2291 83.0725 74.4449 82.91 75.3906L82.6707 76.8681L94.536 75.0613L94.2539 73.6681C94.1342 72.7647 93.9718 71.5911 93.8949 70.1726C93.7752 68.6781 93.6982 67.0063 93.6128 65.1826C93.5358 63.3588 93.4503 61.3746 93.4161 59.306C93.3734 57.1952 93.3734 55.1181 93.3734 53.0073C93.3734 50.8964 93.3734 48.659 93.4161 46.4975C93.4589 44.3782 93.5358 42.3687 93.6128 40.5196V40.5111Z" fill="#212C2D"/>
<path d="M147.691 62.4216C147.571 61.4844 147.451 60.3445 147.374 59.0358C147.212 56.3424 147.135 53.0832 147.135 49.2162V44.9861L157.761 26.3601C158.881 24.3168 160.035 22.2229 161.154 20.0529C162.274 17.9674 163.548 15.9748 164.993 14.0835L167.07 11.3732L151.375 13.7626V15.2402C151.375 15.4766 151.298 15.9748 151.136 16.5574C150.973 17.14 150.734 17.8576 150.375 18.7104C149.657 20.416 148.733 22.3917 147.656 24.511C146.579 26.6725 145.417 28.8846 144.143 31.1897C143.305 32.7517 142.502 34.2715 141.783 35.7406C140.988 34.5079 140.142 33.233 139.27 31.9327C137.988 29.9738 136.757 28.1247 135.594 26.2672C134.44 24.4435 133.474 22.797 132.722 21.2772C132.363 20.5764 132.124 19.9347 131.927 19.4028C131.765 18.8708 131.73 18.4318 131.73 18.2376V16.76L130.252 16.988L117.189 18.9722L118.831 21.0408C120.113 22.645 121.31 24.2577 122.344 25.9379C123.464 27.6013 124.541 29.3575 125.661 31.139L135.962 46.7339V50.9217C135.962 54.831 135.842 58.1661 135.646 60.8342C135.483 63.5361 135.21 65.5287 134.928 66.7277L134.449 68.5936L148.588 66.4406L148.109 64.7182C147.99 64.1356 147.827 63.401 147.708 62.4216H147.691Z" fill="#212C2D"/>
<path d="M251.273 46.0162C251.196 44.547 251.076 42.8921 250.991 41.0684C250.914 39.2446 250.871 37.252 250.828 35.1074C250.786 32.9966 250.751 30.8519 250.751 28.6567C250.751 26.4614 250.794 24.4181 250.828 22.3411C250.871 20.2218 250.905 18.2545 250.991 16.4054C251.068 14.5141 251.187 12.8254 251.273 11.331C251.393 9.83649 251.512 8.62065 251.675 7.71721L251.914 6.23962L240.493 7.97895L240.733 9.38054C240.895 10.2333 241.049 11.4069 241.134 12.8761C241.254 14.3368 241.331 16.0001 241.416 17.8661C241.493 19.6899 241.579 21.6318 241.613 23.7427C241.656 25.8113 241.656 27.9306 241.656 30.0414V34.8288L218.729 11.2972L209.539 12.6988L209.821 14.0919C209.984 14.8265 210.103 15.9241 210.223 17.3848C210.3 18.8455 210.42 20.4666 210.505 22.3326C210.582 24.1564 210.625 26.149 210.667 28.2598C210.71 30.4129 210.744 32.5575 210.744 34.7528C210.744 36.948 210.702 38.9491 210.667 41.0684C210.625 43.1539 210.591 45.155 210.505 47.004C210.428 48.8531 210.308 50.5502 210.223 52.0785C210.103 53.5307 209.984 54.7466 209.821 55.6922L209.582 57.1698L221.045 55.4221L220.806 54.0205C220.644 53.1255 220.524 51.9434 220.404 50.4911C220.327 49.0304 220.242 47.3587 220.165 45.5349C220.045 43.7196 220.002 41.727 219.968 39.6583C219.925 37.5475 219.891 35.4789 219.891 33.3596V27.5759C223.405 31.2319 226.884 34.8541 230.278 38.451C234.39 42.7739 238.544 47.1729 242.741 51.6817L243.143 52.0616L243.699 51.9772L251.965 50.7191L251.683 49.2837C251.521 48.5492 251.401 47.4515 251.281 46.0331L251.273 46.0162Z" fill="#212C2D"/>
<path d="M197.605 20.0192C195.485 18.4656 192.929 17.4186 190.014 16.9036C187.099 16.4308 183.825 16.4476 180.226 16.9965C176.713 17.5284 173.473 18.5416 170.558 19.9854C167.643 21.4292 165.129 23.2445 163.009 25.5242C160.932 27.7533 159.291 30.3623 158.179 33.2836C157.06 36.2473 156.504 39.4473 156.504 42.9175C156.504 46.3877 157.06 49.2162 158.179 51.7999C159.299 54.3835 160.932 56.5282 163.009 58.1324C165.129 59.762 167.643 60.9018 170.515 61.5013C173.43 62.1345 176.67 62.1599 180.217 61.6195C183.816 61.0707 187.09 60.0575 190.04 58.5292C192.955 57.0432 195.468 55.1434 197.588 52.8722C199.665 50.6432 201.307 47.9919 202.418 45.0706C203.538 42.1492 204.093 38.9829 204.093 35.6731C204.093 32.0763 203.538 28.9691 202.418 26.3517C201.298 23.768 199.665 21.6234 197.588 20.0192H197.605ZM188.15 41.1782L189.792 50.4321L181.209 46.9281L172.626 52.3318L174.268 42.7149L167.326 36.8045L176.918 34.3644L181.209 25.3047L185.5 33.4103L195.092 33.7227L188.15 41.1782Z" fill="#212C2D"/>
<path d="M276.739 10.7653C279.056 10.4951 281.013 10.2755 282.654 10.1067C284.253 9.94625 290.947 9.30455 292.024 9.29611C292.665 9.27078 293.229 9.24545 293.75 9.23701V0L258.924 5.01534L259.206 6.45071C259.368 7.22749 259.488 8.36734 259.608 9.78582C259.685 11.255 259.77 12.9183 259.847 14.7758C259.967 16.5912 260.009 18.5838 260.044 20.6946C260.086 22.8054 260.121 24.9501 260.121 27.1538C260.121 29.3575 260.078 31.4683 260.044 33.5538C260.001 35.6731 259.967 37.6404 259.847 39.5317C259.77 41.3808 259.685 43.0695 259.608 44.5977C259.488 46.0922 259.368 47.2658 259.206 48.1692L258.924 49.6468L293.75 44.4542V35.0652C291.69 35.4536 287.578 36.129 286.689 36.357C285.612 36.6441 284.253 36.9649 282.654 37.2942C281.013 37.6235 279.064 38.0034 276.739 38.4341C274.704 38.8225 272.388 39.2193 269.669 39.633V28.8593C270.943 28.7073 272.268 28.5047 273.585 28.3021C275.303 28.0825 276.978 27.8208 278.62 27.6181C280.261 27.4071 281.774 27.2551 283.176 27.1622C284.612 27.0187 285.852 26.9511 286.971 26.9005L288.331 26.816V17.5959L286.971 17.9252C285.852 18.2123 284.612 18.5247 283.219 18.8202C281.783 19.1157 280.261 19.3859 278.628 19.6814C276.987 19.9685 275.311 20.264 273.593 20.5257C272.277 20.7622 270.96 20.9648 269.678 21.159V11.7362C272.396 11.3225 274.713 11.0101 276.747 10.7821L276.739 10.7653Z" fill="#212C2D"/>
<path d="M131.559 122.369L49.6299 134.342V142L131.559 122.369Z" fill="#DDB26C"/>
</g>
<defs>
<clipPath id="clip0_77_307">
<rect width="293" height="142" fill="white" transform="translate(0.75)"/>
</clipPath>
</defs>
</svg>
