<svg width="62" height="61" viewBox="0 0 62 61" fill="none" xmlns="http://www.w3.org/2000/svg">
<rect x="0.000244141" width="62" height="61" rx="5" fill="#F9F9F9"/>
<path d="M25.2826 20.5878C25.2823 21.1432 25.0619 21.6758 24.6698 22.0683C24.2777 22.4608 23.746 22.6812 23.1918 22.6809C22.6376 22.6806 22.1062 22.4597 21.7145 22.0668C21.3228 21.6739 21.1029 21.1411 21.1031 20.5857C21.1034 20.0304 21.3239 19.4978 21.716 19.1053C22.108 18.7128 22.6397 18.4924 23.1939 18.4927C23.7481 18.493 24.2795 18.7138 24.6713 19.1068C25.063 19.4997 25.2829 20.0324 25.2826 20.5878ZM25.3453 24.2316H21.1658V37.3408H25.3453V24.2316ZM31.9488 24.2316H27.7902V37.3408H31.907V30.4616C31.907 26.6294 36.8909 26.2734 36.8909 30.4616V37.3408H41.0181V29.0376C41.0181 22.5772 33.6414 22.8181 31.907 25.9907L31.9488 24.2316Z" fill="black"/>
</svg>
