<svg width="341" height="148" viewBox="0 0 341 148" fill="none" xmlns="http://www.w3.org/2000/svg">
<path d="M221.373 93.2707C221.373 95.2554 220.459 96.3908 218.631 96.6769L217.156 96.9094C215.328 97.1955 214.414 96.3461 214.414 94.3614V82.7927C214.414 80.8079 215.328 79.6725 217.156 79.3864L218.631 79.1539C220.459 78.8679 221.373 79.7172 221.373 81.7019V83.6777L219.086 84.0354V82.2294C219.086 81.5455 218.746 81.2594 218.061 81.3622L217.611 81.4337C217.006 81.5276 216.706 81.9165 216.706 82.6004V93.825C216.706 94.5089 217.006 94.8039 217.611 94.7101L218.181 94.6207C218.786 94.5268 219.086 94.1379 219.086 93.454V92.5018L221.373 92.1442V93.2707Z" fill="white"/>
<path d="M228.257 95.175V87.2181L225.444 87.6562V95.613L223.157 95.9706V78.4477L225.444 78.09V85.5329L228.257 85.0948V77.652L230.544 77.2944V94.8174L228.257 95.175Z" fill="white"/>
<path d="M234.859 94.1424L232.571 94.5V79.9809C232.571 77.9783 233.485 76.8384 235.313 76.5523L237.027 76.2841C238.855 75.998 239.769 76.8563 239.769 78.8589V93.378L237.482 93.7356V87.3164L234.863 87.7277V94.1468L234.859 94.1424ZM237.477 85.1931V79.3596C237.477 78.6756 237.146 78.3851 236.475 78.4924L235.857 78.5907C235.19 78.6935 234.854 79.0869 234.854 79.7708V85.6044L237.473 85.1931H237.477Z" fill="white"/>
<path d="M241.791 75.5376L246.269 74.8403C248.017 74.5676 248.892 75.4303 248.892 77.4329V81.7511C248.892 83.2799 248.437 84.3214 247.532 84.8668L249.13 91.9162L246.962 92.256L245.461 85.4122L244.079 85.6267V92.703L241.791 93.0606V75.5376ZM244.079 83.6241L245.58 83.3916C246.264 83.2844 246.604 82.8105 246.604 81.9612V78.1795C246.604 77.3346 246.264 76.9636 245.58 77.0709L244.079 77.3033V83.6241Z" fill="white"/>
<path d="M257.635 86.4895V87.6115C257.635 89.5962 256.721 90.7316 254.893 91.0177L253.413 91.2502C251.585 91.5363 250.671 90.6869 250.671 88.7022V77.1334C250.671 75.1487 251.585 74.0133 253.413 73.7272L254.893 73.4947C256.721 73.2086 257.635 74.058 257.635 76.0427V78.0185L255.347 78.3761V76.5702C255.347 75.8863 255.007 75.6002 254.323 75.7075L253.872 75.779C253.268 75.8729 252.967 76.2618 252.967 76.9457V88.1702C252.967 88.8542 253.268 89.1492 253.872 89.0553L254.442 88.9659C255.047 88.8721 255.347 88.4832 255.347 87.7992V86.8471L257.635 86.4895Z" fill="white"/>
<path d="M262.064 89.8957C260.222 90.1818 259.299 89.3369 259.299 87.3477V75.8058C259.299 73.8032 260.213 72.6633 262.041 72.3772L264.232 72.0375C266.06 71.7514 266.974 72.6096 266.974 74.6123V86.1542C266.974 88.1389 266.051 89.2744 264.21 89.5605L262.064 89.8957ZM262.611 87.6875L263.777 87.5042C264.382 87.4103 264.682 87.0214 264.682 86.3375V75.1129C264.682 74.429 264.342 74.1429 263.658 74.2457L262.585 74.4111C261.918 74.5139 261.582 74.9073 261.582 75.5912V86.8158C261.582 87.4997 261.922 87.7858 262.607 87.683L262.611 87.6875Z" fill="white"/>
<path d="M271.164 88.4787L268.877 88.8363V74.3172C268.877 72.3146 269.791 71.1747 271.619 70.8886L273.332 70.6204C275.16 70.3343 276.074 71.1926 276.074 73.1952V87.7143L273.787 88.0719V81.6528L271.169 82.0595V88.4787H271.164ZM273.783 79.5294V73.6959C273.783 73.012 273.452 72.7214 272.78 72.8287L272.162 72.927C271.495 73.0298 271.16 73.4232 271.16 74.1072V79.9407L273.778 79.5339L273.783 79.5294Z" fill="white"/>
<path d="M283.528 86.5476L278.097 87.3969V69.8739L280.384 69.5163V84.916L283.528 84.4243V86.5476Z" fill="white"/>
<path d="M223.894 45.1316V45.8916C223.894 46.2715 223.811 46.942 223.647 47.8093C223.484 48.6809 223.237 49.7135 222.967 50.8534C222.68 52.0201 222.349 53.2941 221.978 54.662C221.629 56.0477 221.236 57.4424 220.865 58.8282C220.472 60.2407 220.079 61.6354 219.708 63.0256C219.563 63.5129 219.439 63.9957 219.315 64.4829C218.922 63.4458 218.512 62.3685 218.097 61.251C217.373 59.3557 216.693 57.5184 216.013 55.7438C215.35 53.9647 214.776 52.3465 214.259 50.8624C213.743 49.3783 213.394 48.2295 213.209 47.3935L213.063 46.8258L207.614 47.6752L207.49 48.2652C207.265 49.2084 206.89 50.5137 206.395 52.1989C205.901 53.8842 205.322 55.7259 204.682 57.7509C204.042 59.7535 203.384 61.8411 202.682 64.0001C202.249 65.2741 201.856 66.4945 201.463 67.6791C201.317 67.2142 201.176 66.7538 201.03 66.2665C200.637 65.0193 200.244 63.7453 199.856 62.4356C199.485 61.1392 199.092 59.8518 198.721 58.5778C198.35 57.3039 197.997 56.1103 197.687 55.0196C197.356 53.9289 197.109 52.9544 196.901 52.1006C196.676 51.2289 196.553 50.5495 196.469 50.0756L196.385 49.4319L189.152 50.5539L189.81 51.6134C190.282 52.3643 190.883 53.6875 191.541 55.5292C192.199 57.3709 193.047 59.8161 194.08 62.8692V62.8915C194.574 64.2952 195.051 65.6988 195.462 67.0711C195.895 68.439 196.266 69.7353 196.619 70.9289C196.95 72.1224 197.215 73.1818 197.405 74.1027C197.568 75.0503 197.674 75.7522 197.674 76.1947V76.9546L204.112 75.9488L204.236 75.3364C204.32 74.9028 204.505 74.2189 204.792 73.2623C205.062 72.3102 205.388 71.2016 205.781 69.9589C206.174 68.7161 206.607 67.3572 207.08 65.9089C207.552 64.4606 208.029 63.0122 208.501 61.5639C208.974 60.0932 209.429 58.6941 209.884 57.3128C210.047 56.8211 210.193 56.3562 210.338 55.9092C210.502 56.3472 210.692 56.7853 210.855 57.2636C211.31 58.4616 211.765 59.6775 212.237 60.9381C212.692 62.1987 213.164 63.4548 213.597 64.7422C214.052 66.0028 214.463 67.2052 214.834 68.3317C215.227 69.4537 215.558 70.4595 215.845 71.3446C216.132 72.2297 216.339 72.936 216.485 73.4411L216.648 73.9865L217.205 73.9015L222.941 73.0075L222.98 72.261C223.003 71.814 223.104 71.0809 223.29 70.0795C223.497 69.0738 223.766 67.9339 224.093 66.6375C224.442 65.3144 224.817 63.9241 225.228 62.4043C225.639 60.9023 226.076 59.378 226.526 57.8045C227.021 56.0165 227.476 54.443 227.869 53.0527C228.24 51.6849 228.61 50.4869 228.942 49.4632C229.273 48.4395 229.582 47.5679 229.851 46.8705C230.121 46.1955 230.368 45.6681 230.593 45.297L231.441 43.9605L223.89 45.1406L223.894 45.1316Z" fill="white"/>
<path d="M237.119 52.637C237.159 51.6357 237.203 50.764 237.265 49.9728C237.305 49.2039 237.389 48.5781 237.451 48.1669L237.614 47.3801L236.828 47.5008L231.445 48.3412L231.591 49.0788C231.675 49.4677 231.737 50.0712 231.799 50.8221C231.838 51.5955 231.9 52.4537 231.944 53.4416C231.984 54.4072 232.006 55.4622 232.028 56.5797C232.05 57.7196 232.068 58.855 232.068 60.0172C232.068 61.1795 232.046 62.2389 232.028 63.3609C232.006 64.465 231.988 65.5245 231.944 66.5034C231.905 67.4824 231.843 68.3809 231.799 69.19C231.737 69.9589 231.675 70.6026 231.591 71.1032L231.467 71.8855L237.596 70.9289L237.451 70.1913C237.389 69.713 237.305 69.0916 237.265 68.3407C237.203 67.5494 237.164 66.6643 237.119 65.6988C237.08 64.7332 237.036 63.6828 237.018 62.5876C236.996 61.47 236.996 60.3704 236.996 59.2528C236.996 58.1353 236.996 56.9507 237.018 55.8064C237.04 54.6843 237.08 53.6205 237.119 52.6415V52.637Z" fill="white"/>
<path d="M265.053 64.2371C264.991 63.7409 264.929 63.1374 264.89 62.4445C264.806 61.0185 264.766 59.2931 264.766 57.2457V55.0062L270.255 45.145C270.833 44.0633 271.429 42.9547 272.008 41.8058C272.586 40.7017 273.244 39.6468 273.99 38.6454L275.063 37.2105L266.956 38.4756V39.2579C266.956 39.383 266.916 39.6468 266.832 39.9552C266.749 40.2636 266.625 40.6436 266.439 41.0951C266.069 41.9981 265.592 43.0441 265.035 44.1661C264.479 45.3104 263.878 46.4816 263.22 47.702C262.788 48.5289 262.373 49.3336 262.002 50.1114C261.591 49.4587 261.154 48.7837 260.704 48.0953C260.041 47.0583 259.405 46.0793 258.805 45.0959C258.209 44.1303 257.71 43.2586 257.321 42.454C257.136 42.083 257.012 41.7433 256.91 41.4616C256.827 41.18 256.809 40.9476 256.809 40.8448V40.0625L256.045 40.1832L249.298 41.2337L250.146 42.3289C250.808 43.1782 251.426 44.032 251.96 44.9215C252.539 45.8022 253.095 46.7319 253.674 47.6752L258.995 55.9315V58.1487C258.995 60.2184 258.933 61.9841 258.831 63.3967C258.747 64.8271 258.606 65.8821 258.46 66.5168L258.213 67.5047L265.517 66.3648L265.269 65.4529C265.208 65.1445 265.124 64.7556 265.062 64.2371H265.053Z" fill="white"/>
<path d="M318.558 55.5516C318.518 54.7738 318.456 53.8976 318.412 52.932C318.372 51.9665 318.35 50.9115 318.328 49.7761C318.306 48.6586 318.288 47.5232 318.288 46.3609C318.288 45.1987 318.31 44.1169 318.328 43.0173C318.35 41.8952 318.368 40.8537 318.412 39.8747C318.452 38.8734 318.513 37.9794 318.558 37.1882C318.619 36.397 318.681 35.7533 318.765 35.275L318.889 34.4927L312.99 35.4135L313.113 36.1556C313.197 36.6071 313.277 37.2284 313.321 38.0062C313.382 38.7796 313.422 39.6602 313.466 40.6481C313.506 41.6136 313.55 42.6418 313.568 43.7593C313.59 44.8545 313.59 45.9765 313.59 47.094V49.6286L301.747 37.1703L297 37.9123L297.146 38.6499C297.23 39.0388 297.292 39.6199 297.354 40.3933C297.393 41.1666 297.455 42.0249 297.499 43.0128C297.539 43.9783 297.561 45.0333 297.583 46.1508C297.605 47.2907 297.623 48.4261 297.623 49.5884C297.623 50.7506 297.601 51.81 297.583 52.932C297.561 54.0362 297.543 55.0956 297.499 56.0746C297.46 57.0535 297.398 57.952 297.354 58.7611C297.292 59.53 297.23 60.1737 297.146 60.6743L297.022 61.4566L302.944 60.5313L302.82 59.7893C302.736 59.3154 302.674 58.6896 302.613 57.9207C302.573 57.1474 302.529 56.2623 302.489 55.2968C302.427 54.3357 302.405 53.2807 302.387 52.1855C302.365 51.068 302.348 49.9728 302.348 48.8508V45.7887C304.163 47.7243 305.96 49.642 307.713 51.5463C309.837 53.835 311.983 56.164 314.151 58.551L314.358 58.7522L318.915 58.0414L318.77 57.2815C318.686 56.8926 318.624 56.3115 318.562 55.5605L318.558 55.5516Z" fill="white"/>
<path d="M290.836 41.788C289.741 40.9655 288.421 40.4112 286.915 40.1385C285.409 39.8882 283.718 39.8971 281.859 40.1877C280.044 40.4693 278.371 41.0057 276.865 41.7701C275.359 42.5345 274.061 43.4956 272.966 44.7025C271.893 45.8826 271.045 47.2639 270.471 48.8106C269.893 50.3796 269.606 52.0738 269.606 53.911C269.606 55.7482 269.893 57.2457 270.471 58.6136C271.049 59.9815 271.893 61.1169 272.966 61.9662C274.061 62.829 275.359 63.4324 276.843 63.7498C278.349 64.0851 280.022 64.0985 281.855 63.8124C283.714 63.5218 285.405 62.9854 286.928 62.1763C288.434 61.3896 289.732 60.3838 290.827 59.1813C291.9 58.0012 292.748 56.5976 293.322 55.0509C293.901 53.5042 294.188 51.8279 294.188 50.0756C294.188 48.1713 293.901 46.5263 293.322 45.1406C292.744 43.7727 291.9 42.6373 290.827 41.788H290.836ZM285.952 52.9902L286.8 57.8894L282.367 56.0343L277.933 58.8952L278.781 53.8037L275.196 50.6746L280.15 49.3827L282.367 44.5863L284.583 48.8776L289.538 49.043L285.952 52.9902Z" fill="white"/>
<path d="M331.712 36.8887C332.909 36.7456 333.92 36.6294 334.768 36.54C335.593 36.4551 339.051 36.1153 339.607 36.1109C339.938 36.0975 340.23 36.0841 340.499 36.0796V31.1892L322.51 33.8445L322.655 34.6044C322.739 35.0157 322.801 35.6192 322.863 36.3701C322.903 37.1479 322.947 38.0286 322.987 39.012C323.048 39.9731 323.07 41.028 323.088 42.1456C323.11 43.2631 323.128 44.3985 323.128 45.5652C323.128 46.732 323.106 47.8495 323.088 48.9536C323.066 50.0756 323.048 51.1172 322.987 52.1185C322.947 53.0974 322.903 53.9915 322.863 54.8006C322.801 55.5918 322.739 56.2131 322.655 56.6914L322.51 57.4737L340.499 54.7246V49.7538C339.435 49.9594 337.311 50.317 336.852 50.4377C336.295 50.5897 335.593 50.7596 334.768 50.9339C333.92 51.1082 332.913 51.3094 331.712 51.5374C330.661 51.743 329.464 51.9531 328.06 52.1721V46.4682C328.718 46.3877 329.403 46.2805 330.083 46.1732C330.97 46.057 331.836 45.9184 332.683 45.8111C333.531 45.6993 334.313 45.6189 335.037 45.5697C335.779 45.4937 336.419 45.458 336.997 45.4311L337.7 45.3864V40.505L336.997 40.6794C336.419 40.8314 335.779 40.9967 335.059 41.1532C334.317 41.3097 333.531 41.4527 332.688 41.6092C331.84 41.7611 330.975 41.9176 330.087 42.0562C329.407 42.1813 328.727 42.2886 328.065 42.3914V37.4027C329.469 37.1837 330.665 37.0183 331.716 36.8976L331.712 36.8887Z" fill="white"/>
<path d="M256.721 95.9751L214.401 102.314V106.368L256.721 95.9751Z" fill="#DDB26C"/>
<g filter="url(#filter0_d_3_72)">
<path d="M73.576 139.152C112.002 139.152 143.152 108.002 143.152 69.576C143.152 31.1502 112.002 0 73.576 0C35.1502 0 4 31.1502 4 69.576C4 108.002 35.1502 139.152 73.576 139.152Z" fill="white"/>
<path d="M92.7085 29.4657C92.7085 29.4657 78.881 29.1082 68.5478 32.2335C29.7407 43.9737 43.9949 86.6788 43.9949 86.6788C43.9949 86.6788 52.8635 75.4691 68.7092 69.23C87.0922 61.9876 93.9771 56.4173 92.7085 29.4772V29.4657ZM76.24 57.1439C70.4045 61.3302 63.4389 61.7338 54.9624 66.4507C50.0034 69.2069 49.5767 72.3323 49.5767 72.3323C49.5767 72.3323 48.3889 56.3827 58.1685 46.9606C68.0519 37.4347 77.8776 37.6654 82.0178 38.3112C77.2895 39.0723 65.8838 42.3361 61.2477 56.0598C61.2477 56.0598 69.505 41.079 83.7477 43.547C83.0442 48.8635 81.0145 53.6956 76.2285 57.1323L76.24 57.1439Z" fill="#1EB53A"/>
<path d="M57.292 76.2303C57.292 76.2303 42.0113 88.0627 49.0462 95.5589C54.1436 101.002 65.4225 97.7385 72.9532 88.3625C75.8018 84.822 78.1198 80.3935 79.3653 75.25C79.3653 75.25 49.669 88.3049 57.292 76.2303Z" fill="#098ACB"/>
<path d="M42.2189 112.12C41.4808 113.365 41.6192 114.761 42.9916 115.683C44.1449 116.456 44.8714 116.41 45.5634 116.052L50.4993 119.351C48.435 120.942 45.425 121.865 40.835 118.797C35.3571 115.13 35.8068 110.69 37.8827 107.599C40.1085 104.277 44.3294 102.744 49.323 106.077C54.4435 109.502 54.2128 114.069 52.1254 117.194C51.987 117.402 51.5834 117.99 51.3989 118.255L42.2189 112.12ZM48.1582 112.339C48.7118 111.416 48.9885 110.148 47.3971 109.087C45.8632 108.06 44.7676 108.521 43.9949 109.548L48.1697 112.339H48.1582Z" fill="#050020"/>
<path d="M55.8389 114.934C56.0926 113.688 56.404 112.166 56.5655 111.232L62.4817 112.431C62.4701 112.835 62.3548 113.607 62.2971 114.034C63.1159 113.342 64.6613 112.489 67.3369 113.031C70.9235 113.757 72.4804 116.341 71.7308 119.996L69.9432 128.773L63.8656 127.539L65.5263 119.339C65.7915 118.059 65.5263 116.906 64.0732 116.617C62.6085 116.317 61.6744 117.102 61.2361 119.27L59.7254 126.697L53.6823 125.474L55.8158 114.945L55.8389 114.934Z" fill="#050020"/>
<path d="M78.4197 113.584C80.8184 118.197 81.9717 120.538 82.8597 122.799H82.952C83.0673 120.642 83.3787 117.367 83.9668 112.639L90.0676 111.601L86.9422 126.858L79.8843 128.058L71.9153 114.691L78.4081 113.584H78.4197Z" fill="#050020"/>
<path d="M87.1268 105.477L92.6855 102.836L94.3692 106.388L88.8105 109.029L87.1268 105.477ZM89.6755 110.84L95.2341 108.199L101.45 121.3L95.8915 123.941L89.6755 110.84Z" fill="#050020"/>
<path d="M99.1898 110.909C98.3364 109.813 97.3561 108.556 96.595 107.633L101.312 103.955C101.739 104.347 102.719 105.488 103.145 106.03C102.719 104.404 102.846 102.213 105.383 100.299L108.67 104.508C105.971 106.492 105.025 108.383 107.47 111.508L110.399 115.257L105.556 119.039L99.1898 110.897V110.909Z" fill="#050020"/>
<path d="M120.364 105.65C119.176 107.184 117.723 107.507 116.385 106.653L117.204 105.592C117.965 106.111 118.853 105.869 119.545 104.981C120.145 104.208 120.271 103.482 119.718 103.055C119.233 102.686 118.795 102.813 118.103 103.436L117.204 104.243C116.166 105.154 115.151 105.338 114.274 104.658C113.26 103.874 113.225 102.432 114.274 101.083C115.347 99.6875 116.823 99.33 118.092 100.149L117.273 101.21C116.523 100.737 115.716 100.933 115.116 101.717C114.574 102.421 114.505 103.113 115.013 103.505C115.485 103.874 115.935 103.747 116.604 103.147L117.55 102.305C118.645 101.314 119.568 101.152 120.41 101.798C121.551 102.674 121.563 104.104 120.375 105.65H120.364Z" fill="#050020"/>
<path d="M119.983 99.8144C118.092 98.7534 117.411 96.6199 118.426 94.8093C119.441 92.9986 121.621 92.4797 123.512 93.5407C125.403 94.6017 126.084 96.7352 125.069 98.5458C124.054 100.356 121.886 100.875 119.983 99.8144ZM122.809 94.7977C121.413 94.0135 120.11 94.371 119.522 95.4205C118.934 96.4699 119.303 97.7616 120.698 98.5458C122.094 99.33 123.397 98.984 123.996 97.9346C124.585 96.8851 124.215 95.5819 122.809 94.7862V94.7977Z" fill="#050020"/>
<path d="M127.479 93.4138L118.345 89.4927L118.899 88.2011L128.033 92.1222L127.479 93.4138Z" fill="#050020"/>
<path d="M123.385 83.2075L123.8 81.8697L130.801 84.0263L130.42 85.2718L129.313 84.9258C129.924 85.5255 130.189 86.4943 129.89 87.4515C129.451 88.87 128.321 89.585 126.522 89.0314L122.013 87.636L122.428 86.2982L126.672 87.6014C127.883 87.982 128.575 87.5207 128.84 86.6557C129.117 85.7562 128.598 84.799 127.502 84.4645L123.374 83.196L123.385 83.2075Z" fill="#050020"/>
<path d="M131.942 77.3374C132.058 77.7987 132.058 78.1678 131.988 78.606C131.758 79.9438 130.87 80.7395 129.278 80.4627L125.403 79.7823L125.127 81.3738L123.95 81.1662L124.227 79.5747L122.082 79.1942L122.324 77.8218L124.469 78.2023L124.85 76.0227L126.026 76.2303L125.646 78.4099L129.198 79.0327C130.189 79.2057 130.628 78.7905 130.754 78.0524C130.812 77.7295 130.801 77.4297 130.72 77.1183L131.931 77.3259L131.942 77.3374Z" fill="#050020"/>
<path d="M124.227 74.0506C124.169 74.6503 123.731 75.0309 123.212 74.9848C122.67 74.9386 122.324 74.4773 122.382 73.8776C122.439 73.2895 122.855 72.9089 123.397 72.955C123.916 73.0012 124.285 73.4509 124.227 74.0391V74.0506ZM132.242 75.4691L124.931 74.8118L125.057 73.4163L132.369 74.0737L132.242 75.4691Z" fill="#050020"/>
<path d="M128.932 72.1016C126.764 72.1478 125.092 70.6485 125.057 68.5727C125.023 66.4968 126.626 64.9399 128.794 64.9053C130.962 64.8707 132.634 66.3584 132.669 68.4343C132.715 70.5101 131.1 72.067 128.932 72.1016ZM128.817 66.3469C127.214 66.3815 126.268 67.3502 126.303 68.5611C126.326 69.7605 127.295 70.6831 128.909 70.6601C130.512 70.6255 131.469 69.6683 131.446 68.4689C131.423 67.2695 130.432 66.3238 128.829 66.3584L128.817 66.3469Z" fill="#050020"/>
<path d="M131.965 61.1457L132.208 62.5181L124.988 63.7751L124.769 62.495L125.968 62.2874C125.08 61.9414 124.4 61.2149 124.227 60.2115C123.973 58.7238 124.758 57.5821 126.487 57.2823L131.158 56.475L131.4 57.8474L127.191 58.5739C125.957 58.793 125.346 59.4504 125.53 60.4768C125.692 61.4225 126.626 62.0683 127.906 61.8492L131.977 61.1457H131.965Z" fill="#050020"/>
<path d="M129.74 51.2046C130.339 53.0498 129.797 54.4337 128.344 55.0565L127.929 53.7764C128.782 53.4419 129.094 52.5654 128.736 51.5045C128.425 50.5703 127.894 50.0629 127.237 50.282C126.66 50.4665 126.522 50.9048 126.637 51.8274L126.799 53.0267C126.972 54.3991 126.557 55.3333 125.496 55.6792C124.273 56.0829 123.074 55.2987 122.543 53.6841C122.001 52.0119 122.52 50.5934 123.916 50.0052L124.331 51.2738C123.512 51.6313 123.235 52.404 123.535 53.3381C123.812 54.18 124.354 54.6298 124.954 54.4337C125.519 54.2492 125.669 53.811 125.542 52.9114L125.38 51.6544C125.173 50.1897 125.565 49.3363 126.568 49.0134C127.941 48.5636 129.128 49.3479 129.74 51.2046Z" fill="#050020"/>
<path d="M21.0336 64.5017L20.8721 66.6121L22.0023 67.1196L21.9101 68.2843L16.6282 65.8164L16.7204 64.5593L22.3137 62.9563L22.2215 64.1903L21.0221 64.5132L21.0336 64.5017ZM19.9726 66.22L20.0879 64.7554L17.9313 65.3205L19.9726 66.22Z" fill="#606060"/>
<path d="M22.2215 54.9527L23.9283 55.4601L23.5938 56.5673L18.3696 54.9988L18.9462 53.0729C19.3268 51.7928 20.1687 51.1815 21.3104 51.5275C22.4521 51.862 22.8558 52.8538 22.4752 54.1339L22.233 54.9527H22.2215ZM19.6266 54.18L21.2873 54.6759L21.5295 53.8571C21.714 53.2343 21.4949 52.7846 20.9759 52.6346C20.457 52.4847 20.0533 52.7384 19.8688 53.3612L19.6266 54.18Z" fill="#606060"/>
<path d="M25.8196 49.9014L20.8606 47.641L21.7486 45.7036C22.3253 44.4581 23.2363 43.9967 24.2627 44.4581C24.9316 44.7694 25.2776 45.4153 25.1853 46.2341L27.6879 45.8304L27.1113 47.0759L24.8509 47.3873L24.551 48.0447L26.304 48.8404L25.8196 49.8899V49.9014ZM23.6861 47.6526L24.0667 46.8107C24.355 46.1764 24.2627 45.7266 23.7784 45.5075C23.2825 45.2769 22.8788 45.5075 22.5905 46.1418L22.2099 46.9837L23.6861 47.6526Z" fill="#606060"/>
<path d="M26.5692 42.1515C25.2084 41.2635 24.8624 39.5913 25.7274 38.2766C26.5923 36.9503 28.2645 36.5928 29.6254 37.4808C30.9862 38.3689 31.3437 40.0641 30.4788 41.3789C29.6254 42.6936 27.9416 43.0511 26.5692 42.1515ZM28.968 38.4726C28.1261 37.9191 27.1343 37.9998 26.5808 38.8302C26.0387 39.6605 26.3732 40.6062 27.2151 41.1597C28.0569 41.7133 29.0718 41.6441 29.6138 40.8138C30.1559 39.9719 29.8099 39.0262 28.9795 38.4726H28.968Z" fill="#606060"/>
<path d="M33.6964 36.7428L29.6369 33.0985L30.9285 31.6569C32.0818 30.3653 33.6156 30.3307 34.792 31.3917C35.9798 32.4526 36.1182 34.0441 34.988 35.3012L33.6964 36.7428ZM33.731 35.2205L34.2153 34.6784C34.9419 33.8712 34.8496 33.0177 34.0077 32.2681C33.2005 31.5416 32.3586 31.5531 31.632 32.3604L31.1477 32.9024L33.731 35.2205Z" fill="#606060"/>
<path d="M41.1003 26.7786C41.9191 27.7704 41.8614 28.9929 40.7658 29.8924C39.6587 30.815 38.4593 30.6305 37.6405 29.6387L35.4839 27.0323L36.3719 26.2943L38.54 28.9237C38.9668 29.4426 39.5088 29.5926 40.1085 29.0967C40.6966 28.6123 40.662 28.0587 40.2238 27.5282L38.0557 24.8988L38.9437 24.1607L41.1003 26.7671V26.7786Z" fill="#606060"/>
<path d="M43.3145 24.3568C42.4957 22.9844 42.8878 21.3122 44.2025 20.5164C45.4365 19.7784 46.8896 20.0205 47.7776 21.1161L46.7282 21.7504C46.2092 21.1507 45.4135 21.0008 44.7561 21.3929C43.9604 21.8773 43.7989 22.8345 44.3409 23.7456C44.8945 24.6682 45.8171 24.9795 46.6128 24.4952C47.2817 24.0915 47.5124 23.3189 47.2241 22.5808L48.2735 21.9465C48.8386 23.2612 48.3658 24.6451 47.1318 25.3947C45.8171 26.1905 44.1449 25.7407 43.3145 24.3568Z" fill="#606060"/>
<path d="M53.1057 22.1887L51.3873 18.1177L49.8074 18.7866L49.4037 17.8294L53.6477 16.0418L54.0513 16.999L52.4599 17.6679L54.1667 21.7389L53.1057 22.1887Z" fill="#606060"/>
<path d="M61.2361 16.5608C60.9478 14.9577 61.9281 13.5623 63.4735 13.2855C65.0304 13.0087 66.4373 13.9659 66.7256 15.5805C67.014 17.1951 66.0222 18.602 64.4768 18.8788C62.9314 19.1556 61.5245 18.1753 61.2361 16.5723V16.5608ZM65.5609 15.7881C65.3879 14.8078 64.6498 14.1274 63.658 14.3004C62.6777 14.4734 62.2279 15.3729 62.4009 16.3532C62.5739 17.3335 63.3235 18.0254 64.2923 17.8524C65.2841 17.6794 65.7338 16.7684 65.5493 15.7881H65.5609Z" fill="#606060"/>
<path d="M70.0701 18.0369L69.874 12.582L73.403 12.4552L73.4376 13.4585L71.0734 13.5508L71.1196 14.9231L73.1147 14.8539L73.1493 15.8457L71.1541 15.9149L71.2349 17.9908L70.0816 18.0369H70.0701Z" fill="#606060"/>
</g>
<line x1="167.152" y1="49.183" x2="167.152" y2="90.7293" stroke="#DDB26C" stroke-width="2"/>
<defs>
<filter id="filter0_d_3_72" x="0" y="0" width="147.152" height="147.152" filterUnits="userSpaceOnUse" color-interpolation-filters="sRGB">
<feFlood flood-opacity="0" result="BackgroundImageFix"/>
<feColorMatrix in="SourceAlpha" type="matrix" values="0 0 0 0 0 0 0 0 0 0 0 0 0 0 0 0 0 0 127 0" result="hardAlpha"/>
<feOffset dy="4"/>
<feGaussianBlur stdDeviation="2"/>
<feComposite in2="hardAlpha" operator="out"/>
<feColorMatrix type="matrix" values="0 0 0 0 0 0 0 0 0 0 0 0 0 0 0 0 0 0 0.03 0"/>
<feBlend mode="normal" in2="BackgroundImageFix" result="effect1_dropShadow_3_72"/>
<feBlend mode="normal" in="SourceGraphic" in2="effect1_dropShadow_3_72" result="shape"/>
</filter>
</defs>
</svg>
