<svg width="20" height="21" viewBox="0 0 20 21" fill="none" xmlns="http://www.w3.org/2000/svg">
<path d="M19.4296 14.6325L15.0546 12.7575C14.8677 12.6778 14.6599 12.661 14.4627 12.7096C14.2654 12.7582 14.0893 12.8696 13.9608 13.027L12.0233 15.3942C8.98248 13.9605 6.53535 11.5134 5.10165 8.47262L7.46888 6.53509C7.62657 6.40683 7.73818 6.2307 7.78681 6.03334C7.83545 5.83598 7.81846 5.62815 7.73842 5.44132L5.86338 1.06624C5.77554 0.864833 5.62016 0.700391 5.42406 0.601269C5.22796 0.502148 5.00341 0.474559 4.78915 0.523261L0.726575 1.46078C0.519997 1.50848 0.335688 1.6248 0.203728 1.79074C0.0717689 1.95668 -4.75872e-05 2.16245 2.36575e-08 2.37447C2.36575e-08 12.3942 8.12123 20.4998 18.1253 20.4998C18.3374 20.4999 18.5433 20.4281 18.7093 20.2962C18.8753 20.1642 18.9917 19.9799 19.0394 19.7732L19.9769 15.7106C20.0253 15.4953 19.9971 15.2699 19.8972 15.0731C19.7973 14.8763 19.632 14.7205 19.4296 14.6325Z" fill="black"/>
</svg>
