<svg width="1617" height="1742" viewBox="0 0 1617 1742" fill="none" xmlns="http://www.w3.org/2000/svg">
<g opacity="0.3">
<path d="M400.815 1742L524.95 1004.09L0 551.184L725.364 364.294L1049.94 -330L1374.56 291.499L2101 315.512L1575.4 887.015L1699.25 1595.45L1050.73 1327.22L400.803 1741.99L400.815 1742ZM22.6845 556.493L536.61 999.884L415.502 1719.82L1049.68 1315.1L1052.28 1316.17L1685.26 1577.97L1563.87 883.628L2077.14 325.53L1367.91 302.082L1050.48 -305.651L732.989 373.484L22.6845 556.493Z" fill="#4B5A5C" fill-opacity="0.58"/>
<path d="M446.653 1668.93L562.021 983.127L74.1179 562.187L748.3 388.487L1049.96 -256.808L1351.67 320.821L2026.82 343.141L1538.34 874.294L1653.46 1532.76L1050.68 1283.45L446.653 1668.93ZM94.4127 566.932L572.444 979.367L571.988 982.046L459.778 1649.07L1049.72 1272.59L1640.91 1517.1L1528 871.255L2005.46 352.102L1345.72 330.287L1344.41 327.789L1050.44 -235.03L755.121 396.704L94.4127 566.932Z" fill="#4B5A5C" fill-opacity="0.58"/>
<path d="M492.49 1595.86L599.092 962.165L148.236 573.179L771.237 412.668L1050 -183.629L1328.79 350.144L1952.66 370.769L1501.28 861.573L1607.67 1470.05L1050.64 1239.66L492.514 1595.86H492.49ZM166.153 577.371L608.302 958.838L504.091 1578.32L1049.78 1230.07L1596.57 1456.22L1492.15 858.87L1493.57 857.32L1933.78 378.661L1323.53 358.48L1050.42 -164.421L777.265 419.9L166.153 577.347V577.371Z" fill="#4B5A5C" fill-opacity="0.58"/>
<path d="M538.34 1522.79L636.175 941.215L222.354 584.182L794.174 436.849L1050.02 -110.449L1305.9 379.454L1878.47 398.386L1464.2 848.84L1561.84 1407.35L1050.57 1195.88L538.34 1522.77V1522.79ZM237.893 587.822L644.16 938.332L548.391 1507.59L1049.84 1187.58L1051.62 1188.31L1552.24 1395.37L1456.29 846.521L1862.11 405.245L1301.35 386.71L1050.39 -93.7636L799.397 443.144L797.704 443.576L237.881 587.81L237.893 587.822Z" fill="#4B5A5C" fill-opacity="0.58"/>
<path d="M584.177 1449.71L673.246 920.254L296.46 595.185L817.11 461.043L1050.06 -37.2451L1283.03 408.788L1804.3 426.026L1427.14 836.131L1516.04 1344.66L1050.51 1152.12L584.177 1449.73V1449.71ZM309.621 598.26L680.007 917.815L592.691 1436.85L1049.9 1145.07L1507.91 1334.5L1420.44 834.149L1421.49 833.007L1790.44 431.816L1279.17 414.915L1278.32 413.293L1050.37 -23.1305L821.542 466.364L820.112 466.736L309.633 598.26H309.621Z" fill="#4B5A5C" fill-opacity="0.58"/>
<path d="M630.014 1376.64L710.317 899.292L370.578 606.177L840.047 485.224L1050.08 35.9346L1260.14 438.099L1730.11 453.631L1390.06 823.385L1470.23 1281.95L1050.45 1108.33L630.014 1376.65V1376.64ZM381.361 608.699L715.853 897.286L636.991 1366.09L1049.95 1102.55L1051.18 1103.07L1463.58 1273.64L1384.58 821.776L1385.44 820.839L1718.76 458.388L1256.97 443.12L1256.27 441.799L1050.32 47.5026L843.65 489.584L381.349 608.699H381.361Z" fill="#4B5A5C" fill-opacity="0.58"/>
<path d="M675.852 1303.57L747.388 878.33L444.683 617.18L862.972 509.417L1050.09 109.126L1237.24 467.433L1655.92 481.271L1352.99 810.676L1424.42 1219.26L1050.39 1064.56L675.852 1303.58V1303.57ZM453.09 619.138L751.699 876.769L751.507 877.874L681.279 1295.35L1050 1060.04L1419.23 1212.76L1348.71 809.391L1349.39 808.67L1647.09 484.959L1234.79 471.325L1050.31 118.124L865.806 512.804L864.893 513.044L453.102 619.138H453.09Z" fill="#4B5A5C" fill-opacity="0.58"/>
<path d="M721.701 1230.5L784.471 857.369L518.813 628.171L885.92 533.586L1050.14 182.294L1214.37 496.731L1581.75 508.876L1315.93 797.919L1378.63 1156.53L1050.36 1020.75L721.701 1230.49V1230.5ZM524.83 629.577L787.557 856.251L787.425 857.044L725.592 1224.61L1050.07 1017.54L1050.75 1017.83L1374.9 1151.9L1312.87 797.03L1313.35 796.514L1575.43 511.543L1212.61 499.542L1212.22 498.798L1050.28 188.757L887.95 536.024L524.842 629.577H524.83Z" fill="#4B5A5C" fill-opacity="0.58"/>
<path d="M767.538 1157.43L821.542 836.407L592.931 639.163L594.54 638.754L908.857 557.767L1050.16 255.486L1191.48 526.054L1507.58 536.505L1506.29 537.898L1278.86 785.21L1332.81 1093.85L1050.28 976.988L767.538 1157.44V1157.43ZM596.57 640.028L823.415 835.746L823.331 836.227L769.892 1153.87L1050.12 975.042L1050.54 975.211L1330.57 1091.03L1277.01 784.657L1503.75 538.114L1190.41 527.76L1190.19 527.315L1050.25 259.402L910.07 559.256L596.57 640.028Z" fill="#4B5A5C" fill-opacity="0.58"/>
<path d="M813.376 1084.36L813.484 1083.69L858.612 815.457L667.037 650.178L667.589 650.034L931.782 581.972L1050.19 328.69L1050.46 329.23L1168.59 555.388L1433.4 564.145L1241.79 772.489L1287.01 1031.14L1286.51 1030.94L1050.24 933.215L813.376 1084.37V1084.36ZM668.298 650.466L859.261 815.217L859.237 815.385L814.192 1083.13L1050.18 932.53L1050.32 932.59L1286.23 1030.17L1241.15 772.297L1241.25 772.188L1432.07 564.698L1168.22 555.977L1168.14 555.821L1050.21 330.035L932.202 582.476L932.07 582.512L668.298 650.466Z" fill="#4B5A5C" fill-opacity="0.58"/>
</g>
</svg>
