<svg width="1728" height="1635" viewBox="0 0 1728 1635" fill="none" xmlns="http://www.w3.org/2000/svg">
<g opacity="0.3">
<path d="M-57.0543 2334L121.319 1273.43L-633 622.489L409.3 353.881L875.689 -644L1342.15 249.255L2386 283.768L1630.75 1105.17L1808.71 2123.37L876.828 1737.86L-57.0715 2333.98L-57.0543 2334ZM-600.404 630.12L138.074 1267.39L-35.9505 2302.13L875.327 1720.44L879.054 1721.97L1788.61 2098.25L1614.18 1100.3L2351.71 298.167L1332.6 264.465L876.465 -609.004L420.257 367.088L-600.404 630.12Z" fill="#DDB26C"/>
<path d="M8.81097 2228.98L174.587 1243.3L-526.497 638.304L442.259 388.652L875.723 -538.805L1309.26 291.399L2279.41 323.477L1577.5 1086.88L1742.91 2033.26L876.759 1674.94L8.81097 2228.98ZM-497.335 645.123L189.565 1237.9L188.909 1241.75L27.6715 2200.44L875.378 1659.34L1724.88 2010.77L1562.64 1082.51L2248.71 336.357L1300.72 305.004L1298.83 301.412L876.414 -507.503L452.06 400.462L-497.335 645.123Z" fill="#DDB26C"/>
<path d="M74.6762 2123.95L227.856 1213.18L-419.995 654.101L475.217 423.407L875.775 -433.626L1276.39 333.543L2172.84 363.187L1524.25 1068.6L1677.12 1943.14L876.707 1612.01L74.7108 2123.95H74.6762ZM-394.249 660.127L241.091 1208.39L91.3453 2098.75L875.465 1598.22L1661.17 1923.27L1511.12 1064.71L1513.17 1062.49L2145.71 374.53L1268.83 345.524L876.379 -406.02L483.88 433.8L-394.249 660.092V660.127Z" fill="#DDB26C"/>
<path d="M140.559 2018.93L281.141 1183.07L-313.492 669.916L508.176 458.161L875.81 -328.448L1243.5 375.669L2066.23 402.879L1470.96 1050.3L1611.27 1853.02L876.604 1549.08L140.559 2018.91V2018.93ZM-291.163 675.147L292.617 1178.92L155.002 1997.09L875.551 1537.15L878.105 1538.21L1597.46 1835.8L1459.59 1046.97L2042.73 412.737L1236.96 386.097L876.345 -304.467L515.682 467.208L513.249 467.829L-291.181 675.13L-291.163 675.147Z" fill="#DDB26C"/>
<path d="M206.424 1913.91L334.41 1152.94L-207.007 685.731L541.134 492.933L875.861 -223.235L1210.62 417.83L1959.66 442.605L1417.71 1032.03L1545.45 1762.93L876.517 1486.19L206.424 1913.93V1913.91ZM-188.095 690.151L344.125 1149.43L218.658 1895.42L875.637 1476.05L1533.77 1748.32L1408.08 1029.18L1409.58 1027.54L1939.75 450.927L1205.08 426.635L1203.86 424.305L876.31 -202.949L547.501 500.581L545.448 501.116L-188.077 690.151H-188.095Z" fill="#DDB26C"/>
<path d="M272.289 1808.89L387.679 1122.81L-100.504 701.528L574.093 527.687L875.896 -118.057L1177.73 459.957L1853.06 482.28L1364.42 1013.71L1479.62 1672.79L876.431 1423.26L272.289 1808.9V1808.89ZM-85.0086 705.154L395.633 1119.93L282.315 1793.73L875.706 1414.95L877.484 1415.69L1470.06 1660.84L1356.56 1011.4L1357.78 1010.05L1836.75 489.117L1173.18 467.173L1172.18 465.274L876.241 -101.431L579.269 533.954L-85.0259 705.154H-85.0086Z" fill="#DDB26C"/>
<path d="M338.155 1703.86L440.947 1092.68L5.98102 717.343L607.034 562.459L875.913 -12.8618L1144.83 502.118L1746.45 522.007L1311.16 995.447L1413.79 1582.68L876.345 1360.34L338.155 1703.88V1703.86ZM18.0601 720.157L447.142 1090.44L446.866 1092.03L345.954 1692.05L875.775 1353.85L1406.34 1573.34L1305.01 993.6L1305.98 992.564L1733.77 527.307L1141.31 507.712L876.224 0.0696411L611.106 567.328L609.795 567.673L18.0773 720.157H18.0601Z" fill="#DDB26C"/>
<path d="M404.037 1598.84L494.233 1062.56L112.501 733.14L640.01 597.196L875.982 92.2991L1111.97 544.227L1639.88 561.682L1257.9 977.111L1348 1492.52L876.293 1297.38L404.037 1598.82V1598.84ZM121.146 735.16L498.668 1060.95L498.478 1062.09L409.628 1590.38L875.879 1292.77L876.862 1293.18L1342.65 1485.88L1253.5 975.834L1254.19 975.092L1630.78 565.515L1109.44 548.267L1108.88 547.197L876.189 101.588L642.926 600.701L121.163 735.16H121.146Z" fill="#DDB26C"/>
<path d="M469.902 1493.82L547.501 1032.43L219.003 748.938L221.316 748.351L672.968 631.95L876.017 197.495L1079.08 586.371L1533.29 601.391L1531.44 603.394L1204.64 958.845L1282.17 1402.43L876.189 1234.48L469.902 1493.83V1493.82ZM224.232 750.181L550.193 1031.48L550.073 1032.17L473.284 1488.71L875.948 1231.68L876.552 1231.93L1278.94 1398.39L1201.98 958.051L1527.78 603.705L1077.55 588.822L1077.22 588.184L876.138 203.123L674.711 634.091L224.232 750.181Z" fill="#DDB26C"/>
<path d="M535.768 1388.79L535.923 1387.85L600.77 1002.32L325.489 764.77L326.283 764.562L705.909 666.739L876.051 302.707L876.448 303.484L1046.19 628.532L1426.7 641.118L1151.37 940.562L1216.35 1312.31L1215.63 1312.02L876.12 1171.57L535.768 1388.81V1388.79ZM327.301 765.184L601.702 1001.97L601.667 1002.21L536.941 1387.03L876.034 1170.58L876.241 1170.67L1215.23 1310.91L1150.45 940.285L1150.59 940.13L1424.78 641.912L1045.66 629.378L1045.54 629.153L876.086 304.641L706.513 667.464L706.323 667.516L327.301 765.184Z" fill="#DDB26C"/>
</g>
</svg>
